<?xml version="1.0" encoding="UTF-8"?>
<svg xmlns="http://www.w3.org/2000/svg" xmlns:xlink="http://www.w3.org/1999/xlink" viewBox="0 0 30 30" width="30px" height="30px">
<g id="surface61992691">
<path style=" stroke:none;fill-rule:nonzero;fill:rgb(100%,100%,100%);fill-opacity:1;" d="M 6 4 C 4.894531 4 4 4.894531 4 6 L 4 24 C 4 25.105469 4.894531 26 6 26 L 24 26 C 25.105469 26 26 25.105469 26 24 L 26 6 C 26 4.894531 25.105469 4 24 4 Z M 12.308594 8 L 15 8 C 17.378906 8 19.324219 9.957031 19.308594 12.34375 C 19.304688 12.921875 19.804688 13.386719 20.386719 13.386719 L 20.921875 13.386719 C 21.519531 13.386719 22 13.867188 22 14.464844 L 22 17.691406 C 22 20.0625 20.0625 22 17.691406 22 L 12.304688 22 C 9.9375 22 8 20.0625 8 17.691406 L 8 12.308594 C 8 9.9375 9.9375 8 12.308594 8 Z M 12.308594 11.230469 C 11.714844 11.230469 11.230469 11.714844 11.230469 12.308594 C 11.230469 12.902344 11.714844 13.382812 12.308594 13.382812 L 15 13.382812 C 15.59375 13.382812 16.074219 12.902344 16.074219 12.308594 C 16.074219 11.714844 15.59375 11.230469 15 11.230469 Z M 12.308594 16.613281 C 11.714844 16.613281 11.230469 17.097656 11.230469 17.691406 C 11.230469 18.285156 11.714844 18.769531 12.308594 18.769531 L 17.691406 18.769531 C 18.285156 18.769531 18.769531 18.285156 18.769531 17.691406 C 18.769531 17.097656 18.285156 16.613281 17.691406 16.613281 Z M 12.308594 16.613281 "/>
</g>
</svg>
