<svg xmlns="http://www.w3.org/2000/svg" viewBox="0 0 109.62 85.92"><defs><style>.cls-1{fill:#2fa124;}</style></defs><g id="Capa_2" data-name="Capa 2"><g id="Capa_1-2" data-name="Capa 1"><path class="cls-1" d="M109.62,13.11a2.94,2.94,0,0,1-.84,1q-35.5,35.52-71,71c-.14.14-.27.28-.41.41-.56.52-.59.52-1.16,0-.25-.23-.48-.47-.72-.71L1,50.32c-.34-.34-.67-.69-1-1,0-.44.33-.61.55-.83l11.8-11.8.41-.41a.46.46,0,0,1,.74,0l.92.92L35.58,58.31c1.4,1.39,1,1.37,2.37,0L95.25,1.06C95.62.69,96,.35,96.41,0c.58.17.89.68,1.28,1.07q5.52,5.48,11,11A4.46,4.46,0,0,1,109.62,13.11Z"/></g></g></svg>