<svg xmlns="http://www.w3.org/2000/svg" viewBox="0 0 84.07 84.16"><defs><style>.cls-1{fill:#e01c1c;}</style></defs><g id="Capa_2" data-name="Capa 2"><g id="Capa_1-2" data-name="Capa 1"><path class="cls-1" d="M41.93,55.47,13.23,84.16c-1.09-.82-7.4-7-12.73-12.55A1.22,1.22,0,0,1,0,70.8L28.63,42.18A4.32,4.32,0,0,0,27.56,41Q14.35,27.7,1.11,14.49C-.34,13-.38,13.47,1.06,12c3.65-3.68,7.32-7.33,11-11,.33-.34.67-.67,1-1,1.08.88,2,1.89,2.91,2.82s2,2,3,2.95l2.85,2.84,2.85,2.85c1,1,2,2,2.95,2.95l2.85,2.85,2.85,2.85L36.17,23l2.95,2.95L42,28.77c.46-.44.84-.79,1.21-1.16L69.57,1.27C70,.87,70.29.2,70.85.19s1,.7,1.39,1.12Q77.7,6.74,83.13,12.2a2.88,2.88,0,0,1,.94,1.14L55.32,42.08c1.36,1.42,2.73,2.74,4.07,4.09l4.17,4.17c1.36,1.36,2.71,2.72,4.07,4.07l4.17,4.17,4.07,4.07,4.18,4.18,4,4a2,2,0,0,1-.67.86q-5.79,5.81-11.6,11.6c-.2.2-.4.41-.62.6a.42.42,0,0,1-.63,0l-.82-.81L58.42,71.79,43.15,56.53A4.69,4.69,0,0,0,41.93,55.47Z"/></g></g></svg>