<?xml version="1.0" encoding="utf-8"?>
<!-- Generator: Adobe Illustrator 26.0.0, SVG Export Plug-In . SVG Version: 6.00 Build 0)  -->
<svg version="1.1" id="Capa_1" xmlns="http://www.w3.org/2000/svg" xmlns:xlink="http://www.w3.org/1999/xlink" x="0px" y="0px"
	 viewBox="0 0 349.3 386" style="enable-background:new 0 0 349.3 386;" xml:space="preserve">
<style type="text/css">
	.st0{fill:#070314;stroke:#00D6DB;stroke-miterlimit:10;}
</style>
<g>
	<path class="st0" d="M50.8,7.6h260.5c13.7,0,24.8,5.6,24.8,12.5v343.5c0,6.9-11.1,12.5-24.8,12.5H50.8c-13.7,0-24.8-5.6-24.8-12.5
		V20.1C26.1,13.2,37.1,7.6,50.8,7.6z"/>
</g>
<path class="st0" d="M324.1,376.1H38c-6.6,0-12-5.4-12-12V19.6c0-6.6,5.4-12,12-12h286.1c6.6,0,12,5.4,12,12v344.5
	C336.1,370.7,330.7,376.1,324.1,376.1z"/>
</svg>
